<svg width="16" height="14" viewBox="0 0 16 14" fill="none" xmlns="http://www.w3.org/2000/svg">
<path d="M2.33324 4.33326C2.33338 3.7012 2.49689 3.07991 2.80792 2.52968C3.11895 1.97945 3.56694 1.51896 4.1084 1.1929C4.64987 0.866848 5.26642 0.686295 5.89824 0.668769C6.53005 0.651242 7.15567 0.797336 7.71437 1.09287C8.27308 1.38841 8.7459 1.82336 9.08696 2.3555C9.42802 2.88764 9.62572 3.49891 9.6609 4.12999C9.69607 4.76107 9.56751 5.39052 9.2877 5.95727C9.00788 6.52401 8.58632 7.0088 8.06391 7.36459C9.18891 7.77722 10.1647 8.51707 10.8657 9.48893C11.5666 10.4608 11.9607 11.6202 11.9972 12.8179C11.9957 12.9471 11.9443 13.0706 11.8538 13.1627C11.7633 13.2549 11.6407 13.3085 11.5116 13.3124C11.3825 13.3162 11.2569 13.2701 11.1611 13.1835C11.0652 13.097 11.0065 12.9767 10.9972 12.8479C10.9575 11.5489 10.4136 10.3164 9.48069 9.41153C8.54778 8.5067 7.29921 8.00066 5.99958 8.00066C4.69994 8.00066 3.45137 8.5067 2.51846 9.41153C1.58555 10.3164 1.04161 11.5489 1.00191 12.8479C0.995236 12.9785 0.937696 13.1012 0.841617 13.1899C0.745538 13.2785 0.618563 13.326 0.487893 13.3222C0.357224 13.3183 0.233252 13.2635 0.142539 13.1694C0.0518249 13.0752 0.00158354 12.9493 0.00257796 12.8186C0.0389455 11.6207 0.432983 10.4612 1.13397 9.48921C1.83495 8.51721 2.81081 7.77726 3.93591 7.36459C3.44196 7.02819 3.03773 6.57614 2.7584 6.04781C2.47907 5.51948 2.33312 4.93089 2.33324 4.33326ZM5.99991 1.66659C5.29267 1.66659 4.61439 1.94755 4.11429 2.44764C3.6142 2.94774 3.33324 3.62602 3.33324 4.33326C3.33324 5.0405 3.6142 5.71878 4.11429 6.21888C4.61439 6.71898 5.29267 6.99993 5.99991 6.99993C6.70715 6.99993 7.38543 6.71898 7.88553 6.21888C8.38563 5.71878 8.66658 5.0405 8.66658 4.33326C8.66658 3.62602 8.38563 2.94774 7.88553 2.44764C7.38543 1.94755 6.70715 1.66659 5.99991 1.66659ZM11.5266 4.33326C11.4284 4.33326 11.3319 4.33993 11.2372 4.35326C11.1712 4.3651 11.1033 4.3635 11.0379 4.34856C10.9724 4.33362 10.9106 4.30565 10.8562 4.26632C10.8018 4.22698 10.7559 4.17709 10.7211 4.11962C10.6864 4.06215 10.6636 3.99827 10.6541 3.9318C10.6446 3.86533 10.6486 3.79763 10.6659 3.73273C10.6831 3.66783 10.7132 3.60708 10.7545 3.55408C10.7957 3.50108 10.8472 3.45693 10.9058 3.42426C10.9645 3.39159 11.0291 3.37107 11.0959 3.36393C11.759 3.26806 12.4351 3.39539 13.0178 3.72588C13.6006 4.05636 14.0569 4.57124 14.315 5.18948C14.5731 5.80772 14.6182 6.49422 14.4434 7.14095C14.2686 7.78768 13.8837 8.35792 13.3492 8.76193C14.1348 9.11369 14.8019 9.68526 15.2698 10.4077C15.7378 11.1301 15.9867 11.9725 15.9866 12.8333C15.9866 12.9659 15.9339 13.093 15.8401 13.1868C15.7464 13.2806 15.6192 13.3333 15.4866 13.3333C15.354 13.3333 15.2268 13.2806 15.133 13.1868C15.0393 13.093 14.9866 12.9659 14.9866 12.8333C14.9868 12.0893 14.7472 11.365 14.3034 10.768C13.8596 10.1709 13.2351 9.73276 12.5226 9.51859L12.1666 9.41193V8.29459L12.4399 8.15526C12.8451 7.95002 13.1693 7.61423 13.3601 7.20209C13.551 6.78995 13.5974 6.32551 13.4918 5.88377C13.3862 5.44202 13.1349 5.04874 12.7783 4.76741C12.4217 4.48609 11.9808 4.33314 11.5266 4.33326Z" fill="#707070"/>
</svg>
